<?xml version="1.0" standalone="no"?>
<!DOCTYPE svg PUBLIC "-//W3C//DTD SVG 20010904//EN"
 "http://www.w3.org/TR/2001/REC-SVG-20010904/DTD/svg10.dtd">
<svg version="1.0" xmlns="http://www.w3.org/2000/svg"
 width="1084.000000pt" height="206.000000pt" viewBox="0 0 1084.000000 206.000000"
 preserveAspectRatio="xMidYMid meet">

<g transform="translate(0.000000,206.000000) scale(0.10000,-0.133000)"
fill="#008080" stroke="none">
<path d="M0 1030 l0 -1030 5420 0 5420 0 0 1030 0 1030 -5420 0 -5420 0 0
-1030z m9460 45 l0 -455 -85 0 c-84 0 -85 0 -85 26 l0 25 -33 -26 c-67 -50
-188 -49 -261 2 -28 20 -52 50 -75 96 -31 60 -35 77 -39 170 -7 160 32 266
120 324 33 23 55 28 114 31 64 4 79 1 119 -21 l45 -26 0 155 0 154 90 0 90 0
0 -455z m-5605 410 c35 -34 34 -93 -1 -129 -21 -20 -36 -26 -71 -26 -77 0
-125 70 -91 133 18 35 40 46 91 47 38 0 53 -5 72 -25z m-2445 -80 l0 -75 -130
0 -130 0 0 -355 0 -355 -95 0 -95 0 0 355 0 355 -130 0 -130 0 0 75 0 75 355
0 355 0 0 -75z m2190 0 l0 -75 -190 0 -190 0 0 -105 0 -105 170 0 170 0 0 -75
0 -75 -154 0 c-85 0 -161 -3 -170 -6 -14 -5 -16 -30 -16 -175 l0 -169 -95 0
-95 0 0 423 c0 233 3 427 7 430 3 4 132 7 285 7 l278 0 0 -75z m2610 64 c76
-16 140 -64 173 -129 26 -50 28 -63 25 -136 -5 -98 -36 -161 -102 -202 l-42
-27 88 -165 c48 -91 88 -171 88 -177 0 -10 -27 -13 -100 -13 l-100 0 -77 155
-78 155 -62 0 -63 0 0 -155 0 -155 -95 0 -95 0 0 430 0 430 195 0 c106 0 217
-5 245 -11z m-940 -129 l0 -80 55 0 55 0 0 -65 0 -65 -55 0 -55 0 0 -173 c0
-121 4 -177 12 -185 7 -7 31 -12 55 -12 l43 0 0 -69 c0 -81 -1 -82 -106 -82
-86 0 -132 22 -161 81 -22 41 -23 57 -23 242 l0 198 -50 0 -50 0 0 65 0 65 50
0 50 0 0 80 0 80 90 0 90 0 0 -80z m-3460 -81 c53 -13 113 -62 143 -117 26
-48 46 -146 47 -224 l0 -38 -200 0 c-197 0 -200 0 -200 -21 0 -12 18 -39 40
-61 l40 -40 69 4 c56 3 75 9 105 31 20 16 40 27 44 25 14 -5 82 -85 82 -95 0
-16 -52 -60 -100 -85 -39 -20 -59 -23 -155 -23 -125 0 -159 12 -229 82 -65 64
-81 111 -81 238 0 105 2 114 33 177 67 137 195 189 362 147z m700 -27 c28 -17
55 -45 70 -72 24 -43 25 -55 31 -270 4 -124 10 -235 14 -247 7 -23 6 -23 -85
-23 -83 0 -92 2 -97 20 -7 25 -8 25 -44 -1 -61 -43 -191 -40 -260 6 -107 70
-107 252 0 319 49 31 96 44 199 52 l82 7 0 29 c0 41 -15 64 -49 76 -46 16 -96
-1 -111 -38 l-12 -30 -89 0 c-81 0 -89 2 -89 19 0 55 55 127 123 162 85 44
238 40 317 -9z m2311 20 c36 -14 97 -69 115 -103 7 -15 14 -42 14 -59 l0 -30
-90 0 c-82 0 -90 2 -90 19 0 28 -47 61 -85 61 -37 0 -85 -33 -85 -59 0 -31 32
-49 133 -75 114 -30 146 -45 180 -85 89 -106 40 -245 -103 -296 -47 -16 -165
-22 -215 -9 -95 23 -177 102 -186 179 l-4 30 88 3 c75 2 87 0 87 -13 0 -9 13
-30 29 -46 39 -38 106 -41 147 -6 52 45 14 83 -112 112 -79 18 -166 64 -190
100 -57 87 -26 204 70 260 69 41 216 49 297 17z m2126 -11 c87 -44 131 -130
140 -273 l6 -88 -202 0 c-134 0 -201 -4 -201 -10 0 -25 33 -72 63 -90 21 -14
50 -20 87 -20 53 0 66 5 133 52 16 11 23 7 62 -37 l45 -50 -45 -42 c-57 -52
-118 -73 -215 -73 -98 0 -157 21 -219 76 -73 65 -95 125 -95 249 0 79 5 112
22 156 25 63 77 121 137 151 77 40 204 40 282 -1z m647 -5 c25 -14 54 -37 65
-52 28 -36 53 -106 49 -140 -3 -29 -3 -29 -80 -32 l-77 -3 -19 45 c-23 51 -45
66 -100 66 -70 0 -102 -56 -102 -180 0 -130 31 -180 112 -180 53 0 83 20 94
65 6 24 9 25 90 25 l84 0 0 -30 c0 -72 -54 -146 -136 -185 -44 -21 -70 -26
-127 -26 -85 0 -127 11 -178 47 -81 56 -120 148 -120 284 0 96 17 164 57 221
36 52 105 97 163 104 25 4 53 7 61 8 38 6 125 -14 164 -37z m646 -4 c93 -57
140 -155 140 -292 0 -94 -20 -166 -63 -222 -60 -79 -127 -109 -242 -109 -130
0 -213 49 -267 158 -31 64 -33 74 -33 173 0 99 2 110 33 172 33 68 82 117 138
139 86 34 222 25 294 -19z m608 -51 l-3 -86 -56 -1 c-60 -2 -113 -23 -123 -49
-3 -9 -6 -109 -6 -221 l0 -204 -90 0 -90 0 0 320 0 320 85 0 85 0 0 -32 c0
-32 0 -32 16 -10 27 39 88 61 151 54 l34 -4 -3 -87z m-4478 1 l0 -89 -57 0
c-62 0 -116 -21 -127 -48 -3 -9 -6 -109 -6 -221 l0 -204 -90 0 -90 0 0 320 0
320 85 0 c84 0 85 0 85 -25 0 -14 5 -25 10 -25 6 0 10 4 10 9 0 23 66 51 123
51 l57 0 0 -88z m5581 73 c82 -29 126 -79 144 -162 l7 -33 -91 0 c-90 0 -92 0
-102 27 -14 37 -38 52 -82 53 -27 0 -45 -7 -62 -25 -14 -13 -25 -29 -25 -35 0
-20 40 -49 82 -60 127 -32 181 -53 214 -83 121 -106 62 -280 -110 -321 -51
-12 -165 -8 -215 9 -88 29 -161 110 -161 180 0 25 1 25 85 25 82 0 85 -1 91
-25 10 -40 50 -65 103 -65 55 0 91 22 91 54 0 36 -27 52 -133 82 -156 43 -208
88 -215 184 -6 88 39 155 131 192 55 22 189 23 248 3z m-6081 -315 l0 -320
-90 0 -90 0 0 320 0 320 90 0 90 0 0 -320z"/>
<path d="M9107 1095 c-62 -62 -63 -250 -2 -311 34 -34 102 -33 144 2 l31 26 0
128 0 128 -31 26 c-42 36 -106 36 -142 1z"/>
<path d="M5960 1204 l0 -127 88 5 c101 6 144 24 162 68 16 39 8 115 -15 140
-25 27 -77 40 -162 40 l-73 0 0 -126z"/>
<path d="M1643 1098 c-23 -26 -43 -61 -43 -77 0 -7 38 -11 108 -11 l109 0 -5
30 c-7 49 -47 80 -102 80 -36 0 -51 -5 -67 -22z"/>
<path d="M2269 871 c-77 -78 20 -161 119 -101 30 18 32 23 32 75 l0 55 -61 0
c-54 0 -64 -3 -90 -29z"/>
<path d="M6749 1110 c-19 -11 -43 -46 -53 -77 -7 -23 -7 -23 103 -23 70 0 111
4 111 10 0 24 -30 79 -48 89 -25 13 -91 14 -113 1z"/>
<path d="M8000 1092 c-50 -51 -64 -197 -25 -273 22 -41 54 -59 105 -59 37 0
51 5 72 28 69 73 61 264 -13 316 -13 9 -43 16 -67 16 -34 0 -49 -6 -72 -28z"/>
</g>
</svg>
